# xmcd
#
# Track frame offsets: 
#        150
#        8904
#        25360
#        42903
#        55370
#        70567
#        85211
#        98927
#        123147
#        142959
#        156728
#        179340
#        195413
#
# Disc length: 2882 seconds
#
# Revision: 1
# Processed by: cddbd v1.5.2PL0 Copyright (c) Steve Scherf et al.
# Submitted via: ExactAudioCopy v0.99pb5
#
DISCID=ab0b400d
DTITLE=Commander Cody and His Lost Planet Airmen - The best of Command
DTITLE=er Cody  (Live 2003)
DYEAR=2003
DGENRE=Country
TTITLE0=Battle of New Orleans
TTITLE1=Smoke
TTITLE2=Ubangi stomp
TTITLE3=It should have been me
TTITLE4=Down to seeds
TTITLE5=Big mamou
TTITLE6=Cold country blues
TTITLE7=San Antonio Rose
TTITLE8=House of blue lights
TTITLE9=Truck driving man
TTITLE10=Beat me daddy eight to the bar
TTITLE11=There's a riot going on
TTITLE12=Hot Rod Lincoln
EXTD=
EXTT0=
EXTT1=
EXTT2=
EXTT3=
EXTT4=
EXTT5=
EXTT6=
EXTT7=
EXTT8=
EXTT9=
EXTT10=
EXTT11=
EXTT12=
PLAYORDER=
